<svg width="159" height="79" viewBox="0 0 159 79" fill="none" xmlns="http://www.w3.org/2000/svg">
<g id="Component 1 &#226;&#128;&#147; 1">
<g id="Group 2">
<g id="Clip path group">
<mask id="mask0_1_76162" style="mask-type:luminance" maskUnits="userSpaceOnUse" x="0" y="0" width="159" height="79">
<g id="clip-path-5960">
<path id="Rectangle 1" d="M159 0H0.0126953V78.183H159V0Z" fill="white"/>
</g>
</mask>
<g mask="url(#mask0_1_76162)">
<g id="Group 1">
<path id="Path 1" d="M77.6514 10.375C77.7511 10.4748 77.8695 10.5539 77.9998 10.6079C78.1301 10.6619 78.2698 10.6896 78.4109 10.6896C78.5519 10.6896 78.6916 10.6619 78.8219 10.6079C78.9522 10.5539 79.0706 10.4748 79.1704 10.375L87.7084 1.83501C87.808 1.73501 87.8871 1.61636 87.9409 1.48582C87.9947 1.35529 88.0223 1.21544 88.022 1.07424C88.0218 0.933052 87.9938 0.793289 87.9395 0.662934C87.8853 0.532579 87.8059 0.414185 87.7059 0.314512C87.6059 0.214838 87.4872 0.135838 87.3567 0.0820206C87.2262 0.0282034 87.0863 0.000623564 86.9451 0.000855716C86.8039 0.00108787 86.6642 0.0291275 86.5338 0.0833736C86.4034 0.13762 86.2851 0.21701 86.1854 0.317012L79.1664 7.33701C79.0666 7.43676 78.9482 7.51589 78.8179 7.56987C78.6876 7.62386 78.5479 7.65165 78.4069 7.65165C78.2658 7.65165 78.1262 7.62386 77.9958 7.56987C77.8655 7.51589 77.7471 7.43676 77.6474 7.33701L70.6324 0.317012C70.5335 0.213654 70.415 0.131082 70.2838 0.0741402C70.1526 0.0171989 70.0114 -0.0129645 69.8684 -0.0145799C69.7253 -0.0161954 69.5835 0.0107697 69.451 0.0647329C69.3186 0.118696 69.1982 0.19857 69.097 0.299669C68.9959 0.400767 68.9159 0.521053 68.8619 0.653469C68.8078 0.785884 68.7808 0.927761 68.7823 1.07078C68.7838 1.21379 68.8139 1.35506 68.8707 1.48629C68.9276 1.61753 69.0101 1.73609 69.1134 1.83501L77.6514 10.375Z" fill="#03597B"/>
<path id="Path 2" d="M79.1704 29.801C79.0706 29.7013 78.9522 29.6221 78.8219 29.5682C78.6916 29.5142 78.5519 29.4864 78.4109 29.4864C78.2698 29.4864 78.1301 29.5142 77.9998 29.5682C77.8695 29.6221 77.7511 29.7013 77.6514 29.801L69.1134 38.341C69.0101 38.4399 68.9276 38.5585 68.8707 38.6897C68.8139 38.821 68.7838 38.9622 68.7823 39.1053C68.7808 39.2483 68.8078 39.3901 68.8619 39.5226C68.9159 39.655 68.9959 39.7753 69.097 39.8764C69.1982 39.9775 69.3186 40.0573 69.451 40.1113C69.5835 40.1653 69.7253 40.1922 69.8684 40.1906C70.0114 40.189 70.1526 40.1588 70.2838 40.1019C70.415 40.045 70.5335 39.9624 70.6324 39.859L77.6514 32.839C77.7511 32.7393 77.8695 32.6601 77.9998 32.6062C78.1301 32.5522 78.2698 32.5244 78.4109 32.5244C78.5519 32.5244 78.6916 32.5522 78.8219 32.6062C78.9522 32.6601 79.0706 32.7393 79.1704 32.839L86.1854 39.855C86.2842 39.9584 86.4027 40.041 86.5339 40.0979C86.6651 40.1548 86.8064 40.185 86.9494 40.1866C87.0924 40.1882 87.2343 40.1613 87.3668 40.1073C87.4992 40.0533 87.6195 39.9735 87.7207 39.8724C87.8219 39.7713 87.9018 39.651 87.9559 39.5186C88.0099 39.3862 88.037 39.2443 88.0355 39.1013C88.0339 38.9582 88.0039 38.817 87.947 38.6857C87.8902 38.5545 87.8077 38.4359 87.7044 38.337L79.1704 29.801Z" fill="#03597B"/>
<path id="Path 3" d="M10.9652 73.377C10.7926 73.2124 10.5633 73.1205 10.3247 73.1205C10.0862 73.1205 9.85685 73.2124 9.68424 73.377L6.42624 76.635C6.33741 76.7181 6.26618 76.8182 6.2168 76.9293C6.16742 77.0404 6.1409 77.1604 6.13881 77.282C6.13671 77.4036 6.1591 77.5243 6.20463 77.6371C6.25016 77.7499 6.3179 77.8523 6.40383 77.9384C6.48975 78.0245 6.59211 78.0924 6.70481 78.1381C6.81751 78.1838 6.93825 78.2063 7.05985 78.2044C7.18145 78.2025 7.30143 78.1762 7.41265 78.127C7.52386 78.0778 7.62405 78.0067 7.70724 77.918L10.3242 75.299L12.9412 77.918C13.0244 78.0067 13.1246 78.0778 13.2358 78.127C13.3471 78.1762 13.467 78.2025 13.5886 78.2044C13.7102 78.2063 13.831 78.1838 13.9437 78.1381C14.0564 78.0924 14.1587 78.0245 14.2447 77.9384C14.3306 77.8523 14.3983 77.7499 14.4439 77.6371C14.4894 77.5243 14.5118 77.4036 14.5097 77.282C14.5076 77.1604 14.4811 77.0404 14.4317 76.9293C14.3823 76.8182 14.3111 76.7181 14.2222 76.635L10.9652 73.377Z" fill="#3BBEEF"/>
<path id="Path 4" d="M158.44 73.18C158.275 73.111 158.092 73.0931 157.916 73.1287C157.74 73.1644 157.578 73.2519 157.452 73.38L154.835 75.997L152.218 73.38C152.047 73.2191 151.819 73.1314 151.584 73.1352C151.348 73.1391 151.123 73.2343 150.957 73.4008C150.791 73.5672 150.695 73.7918 150.692 74.0272C150.688 74.2626 150.775 74.4902 150.936 74.662L154.194 77.921C154.364 78.0909 154.595 78.1863 154.835 78.1863C155.076 78.1863 155.306 78.0909 155.476 77.921L158.736 74.66C158.841 74.5543 158.919 74.4242 158.961 74.2814C159.004 74.1386 159.011 73.9874 158.981 73.8413C158.952 73.6952 158.886 73.5587 158.791 73.4439C158.696 73.329 158.574 73.2395 158.436 73.183" fill="#3BBEEF"/>
<path id="Path 5" d="M18.9315 60.08C18.4807 60.08 18.0483 60.2591 17.7295 60.5779C17.4106 60.8967 17.2315 61.3292 17.2315 61.78V66.041C17.2565 66.4052 17.1636 66.7677 16.9665 67.075C16.737 67.3453 16.4303 67.539 16.0875 67.63C15.4942 67.8028 14.8813 67.8992 14.2635 67.917C13.4915 67.958 12.5915 67.978 11.5135 67.978C10.3009 67.978 9.2622 67.9677 8.39754 67.947C7.54154 67.927 6.81654 67.886 6.23954 67.826C5.78134 67.7882 5.32729 67.7105 4.88254 67.594C4.61825 67.524 4.36748 67.4105 4.14054 67.258C3.87956 67.0842 3.68447 66.8279 3.58654 66.53C3.47611 66.1466 3.42254 65.749 3.42754 65.35C3.42802 64.948 3.46147 64.5466 3.52754 64.15C3.59754 63.741 3.66754 63.361 3.74154 63.013C3.7604 62.9226 3.75888 62.8291 3.73709 62.7393C3.7153 62.6495 3.67378 62.5657 3.61556 62.494C3.55734 62.4223 3.48387 62.3644 3.40049 62.3246C3.31711 62.2849 3.22592 62.2641 3.13354 62.264H2.53154C2.00976 62.2623 1.50437 62.4461 1.1056 62.7826C0.706824 63.1191 0.440627 63.5864 0.354537 64.101V64.12C0.273811 64.6334 0.233687 65.1523 0.234537 65.672C0.229544 66.426 0.339817 67.1763 0.561537 67.897C0.798959 68.6403 1.23873 69.3027 1.83154 69.81C2.31603 70.2151 2.87427 70.5228 3.47554 70.716C4.15057 70.9318 4.84583 71.0782 5.55054 71.153C6.39936 71.2479 7.25247 71.2993 8.10654 71.307C9.02854 71.3197 10.0462 71.326 11.1595 71.326C11.9362 71.326 12.6899 71.3157 13.4205 71.295C14.1279 71.2767 14.8337 71.2186 15.5345 71.121C16.1727 71.0338 16.801 70.8851 17.4105 70.677C17.9933 70.4796 18.532 70.1705 18.9965 69.767C19.4612 69.352 19.8236 68.8352 20.0555 68.257C20.3128 67.5788 20.4361 66.8572 20.4185 66.132V61.561C20.4185 61.3665 20.3802 61.1739 20.3058 60.9943C20.2314 60.8146 20.1223 60.6513 19.9848 60.5138C19.8472 60.3763 19.684 60.2672 19.5043 60.1928C19.3246 60.1183 19.132 60.08 18.9375 60.08" fill="#03597B"/>
</g>
</g>
</g>
</g>
<g id="Group 4">
<g id="Clip path group_2">
<mask id="mask1_1_76162" style="mask-type:luminance" maskUnits="userSpaceOnUse" x="23" y="50" width="128" height="22">
<g id="clip-path-5961">
<path id="Path 6" d="M149.128 50.797L139.093 57.297C138.871 57.4412 138.688 57.6388 138.561 57.8718C138.435 58.1048 138.368 58.3658 138.368 58.631V58.967C138.368 59.2621 138.45 59.5513 138.605 59.8025C138.76 60.0536 138.982 60.2567 139.245 60.389C140.211 60.87 141.104 61.345 141.904 61.805C142.736 62.2748 143.529 62.8098 144.275 63.405C144.833 63.843 145.317 64.3673 145.709 64.958C146 65.3987 146.157 65.9141 146.16 66.442C146.166 66.6601 146.123 66.8767 146.034 67.076C145.944 67.2399 145.804 67.3714 145.634 67.452C145.296 67.6189 144.934 67.7303 144.56 67.782C143.932 67.8765 143.296 67.9189 142.66 67.909H113.486C113.153 67.9258 112.82 67.8772 112.505 67.766C112.335 67.6994 112.192 67.5776 112.098 67.42C111.969 67.1828 111.889 66.9213 111.865 66.652C111.815 66.1984 111.792 65.7423 111.795 65.286V61.669C111.795 61.4602 111.754 61.2534 111.674 61.0605C111.594 60.8676 111.477 60.6923 111.33 60.5447C111.182 60.397 111.007 60.2799 110.814 60.2C110.621 60.1201 110.414 60.079 110.205 60.079C109.997 60.079 109.79 60.1201 109.597 60.2C109.404 60.2799 109.229 60.397 109.081 60.5447C108.933 60.6923 108.816 60.8676 108.736 61.0605C108.657 61.2534 108.615 61.4602 108.615 61.669V66.218C108.626 66.5401 108.585 66.8618 108.494 67.171C108.442 67.3417 108.349 67.497 108.222 67.623C108.107 67.7271 107.966 67.7994 107.814 67.833C107.575 67.8862 107.331 67.9121 107.086 67.91C106.754 67.9264 106.421 67.8793 106.106 67.771C105.941 67.7068 105.801 67.5915 105.706 67.442C105.582 67.2205 105.507 66.9744 105.487 66.721C105.441 66.2695 105.42 65.8158 105.423 65.362V63.87C105.423 63.6612 105.382 63.4544 105.302 63.2615C105.222 63.0686 105.105 62.8933 104.958 62.7457C104.81 62.5981 104.635 62.4809 104.442 62.401C104.249 62.3211 104.042 62.28 103.833 62.28C103.625 62.28 103.418 62.3211 103.225 62.401C103.032 62.4809 102.857 62.5981 102.709 62.7457C102.561 62.8933 102.444 63.0686 102.364 63.2615C102.285 63.4544 102.243 63.6612 102.243 63.87V66.219C102.255 66.5254 102.207 66.8311 102.101 67.119C102.029 67.302 101.913 67.4651 101.765 67.595C101.625 67.7089 101.461 67.7893 101.284 67.83C101.048 67.8853 100.807 67.9128 100.564 67.912C100.265 67.9276 99.9656 67.882 99.6844 67.778C99.5325 67.7155 99.4055 67.6044 99.3234 67.462C99.2047 67.2336 99.1329 66.9836 99.1124 66.727C99.0657 66.2869 99.044 65.8445 99.0474 65.402V63.87C99.0474 63.6612 99.0063 63.4544 98.9264 63.2615C98.8465 63.0686 98.7294 62.8933 98.5817 62.7457C98.4341 62.5981 98.2588 62.4809 98.0659 62.401C97.873 62.3211 97.6662 62.28 97.4574 62.28C97.0358 62.2803 96.6316 62.4479 96.3334 62.746C96.0353 63.0441 95.8677 63.4484 95.8674 63.87V66.219C95.879 66.4987 95.8245 66.7772 95.7084 67.032C95.6102 67.2313 95.4696 67.4067 95.2964 67.546C95.1362 67.6732 94.9518 67.7664 94.7544 67.82C94.5543 67.8769 94.3475 67.9075 94.1394 67.911H28.4804C28.134 67.9282 27.7873 67.8804 27.4584 67.77C27.2922 67.7111 27.1511 67.5971 27.0584 67.447C26.9355 67.2213 26.8631 66.9715 26.8464 66.715C26.8039 66.2656 26.7842 65.8144 26.7874 65.363V52.563C26.7874 52.1413 26.6199 51.7369 26.3217 51.4387C26.0236 51.1405 25.6191 50.973 25.1974 50.973C24.7757 50.973 24.3713 51.1405 24.0731 51.4387C23.775 51.7369 23.6074 52.1413 23.6074 52.563V66.095C23.6065 66.6912 23.6598 67.2864 23.7664 67.873C23.8722 68.4726 24.1021 69.0435 24.4414 69.549C24.8105 70.0814 25.3144 70.5062 25.9014 70.78C26.6345 71.1015 27.4304 71.2542 28.2304 71.227H94.0074C94.3275 71.2257 94.6469 71.198 94.9624 71.144C95.6768 71.0211 96.3531 70.7346 96.9384 70.307C97.0501 70.2266 97.1572 70.1401 97.2594 70.048C97.518 70.34 97.8277 70.5824 98.1734 70.763C98.8815 71.1008 99.6616 71.2601 100.445 71.227C100.767 71.2257 101.088 71.1979 101.405 71.144C101.756 71.0843 102.098 70.9864 102.427 70.852C102.773 70.7091 103.1 70.5272 103.404 70.31C103.52 70.2271 103.632 70.1376 103.737 70.042C103.807 70.1207 103.881 70.1955 103.959 70.266C104.228 70.5068 104.534 70.7017 104.865 70.843C105.201 70.9822 105.551 71.0812 105.909 71.138C106.609 71.2488 107.32 71.2559 108.021 71.159C108.361 71.1112 108.695 71.024 109.014 70.899C109.336 70.7707 109.641 70.6027 109.921 70.399C110.018 70.3285 110.11 70.2528 110.198 70.172C110.452 70.4444 110.755 70.6669 111.09 70.828C111.759 71.1184 112.483 71.2551 113.211 71.228H142.627C143.466 71.2391 144.304 71.1637 145.127 71.003C145.763 70.8785 146.379 70.6693 146.958 70.381C147.43 70.1432 147.856 69.8244 148.217 69.439C148.517 69.1157 148.764 68.7476 148.949 68.348C149.113 67.9968 149.226 67.6245 149.285 67.242C149.333 66.9366 149.358 66.6281 149.36 66.319C149.363 65.458 149.157 64.6093 148.76 63.845C148.335 63.0488 147.781 62.3281 147.121 61.712C146.362 61.0013 145.529 60.3728 144.637 59.837C144.404 59.693 144.163 59.55 143.915 59.408C143.769 59.3257 143.646 59.2067 143.559 59.0626C143.472 58.9185 143.424 58.7544 143.42 58.5862C143.416 58.4181 143.455 58.2516 143.534 58.1033C143.614 57.955 143.73 57.8298 143.872 57.74L149.794 54.031C149.883 53.9751 149.957 53.8975 150.008 53.8055C150.059 53.7135 150.085 53.6101 150.085 53.505V51.318C150.085 51.2064 150.055 51.0969 149.998 51.001C149.941 50.9051 149.859 50.8264 149.761 50.7731C149.663 50.7197 149.553 50.6938 149.441 50.698C149.329 50.7023 149.221 50.7364 149.127 50.797" fill="white"/>
</g>
</mask>
<g mask="url(#mask1_1_76162)">
<g id="Group 3">
<path id="Rectangle 2" d="M150.087 50.697H23.6084V71.258H150.087V50.697Z" fill="url(#paint0_linear_1_76162)"/>
</g>
</g>
</g>
</g>
<g id="Group 6">
<g id="Clip path group_3">
<mask id="mask2_1_76162" style="mask-type:luminance" maskUnits="userSpaceOnUse" x="0" y="0" width="159" height="79">
<g id="clip-path-5960_2">
<path id="Rectangle 1_2" d="M159 0H0.0126953V78.183H159V0Z" fill="white"/>
</g>
</mask>
<g mask="url(#mask2_1_76162)">
<g id="Group 5">
<path id="Path 7" d="M154.834 50.971C154.625 50.971 154.419 51.0121 154.226 51.092C154.033 51.1719 153.857 51.2891 153.71 51.4367C153.562 51.5844 153.445 51.7596 153.365 51.9525C153.285 52.1455 153.244 52.3522 153.244 52.561V69.461C153.244 69.8827 153.412 70.2871 153.71 70.5853C154.008 70.8835 154.412 71.051 154.834 71.051C155.256 71.051 155.66 70.8835 155.958 70.5853C156.257 70.2871 156.424 69.8827 156.424 69.461V52.561C156.424 52.1393 156.257 51.7349 155.958 51.4367C155.66 51.1385 155.256 50.971 154.834 50.971Z" fill="#03597B"/>
<path id="Path 8" d="M5.1067 40.173H52.1217C52.7172 40.173 53.2884 39.9364 53.7095 39.5153C54.1306 39.0942 54.3672 38.523 54.3672 37.9275C54.3672 37.332 54.1306 36.7608 53.7095 36.3397C53.2884 35.9186 52.7172 35.682 52.1217 35.682H5.7747C5.43759 35.6815 5.11447 35.5473 4.87619 35.3088C4.63792 35.0703 4.50396 34.7471 4.5037 34.41V23.603C4.50422 23.2661 4.6383 22.9431 4.87655 22.7049C5.11479 22.4666 5.43777 22.3325 5.7747 22.332H52.1217C52.7172 22.332 53.2884 22.0954 53.7095 21.6743C54.1306 21.2532 54.3672 20.682 54.3672 20.0865C54.3672 19.491 54.1306 18.9198 53.7095 18.4987C53.2884 18.0776 52.7172 17.841 52.1217 17.841H5.1067C3.75605 17.8444 2.46176 18.3828 1.50708 19.3382C0.552395 20.2936 0.0150712 21.5884 0.0126953 22.939L0.0126953 35.079C0.0158644 36.429 0.55357 37.7229 1.50819 38.6775C2.46282 39.6321 3.75666 40.1698 5.1067 40.173Z" fill="#03597B"/>
<path id="Path 9" d="M2.25527 4.491H52.1203C52.7158 4.491 53.287 4.25442 53.7081 3.83331C54.1292 3.4122 54.3658 2.84104 54.3658 2.2455C54.3658 1.64996 54.1292 1.0788 53.7081 0.657692C53.287 0.236579 52.7158 0 52.1203 0L2.25527 0C1.65972 0 1.08857 0.236579 0.667457 0.657692C0.246344 1.0788 0.00976563 1.64996 0.00976562 2.2455C0.00976563 2.84104 0.246344 3.4122 0.667457 3.83331C1.08857 4.25442 1.65972 4.491 2.25527 4.491Z" fill="#03597B"/>
</g>
</g>
</g>
</g>
<g id="Group 8">
<g id="Clip path group_4">
<mask id="mask3_1_76162" style="mask-type:luminance" maskUnits="userSpaceOnUse" x="58" y="0" width="41" height="41">
<g id="clip-path-5963">
<path id="Path 10" d="M94.538 0.804003L78.438 16.904L62.36 0.827003C61.9321 0.418063 61.3629 0.189856 60.771 0.189856C60.1791 0.189856 59.61 0.418063 59.182 0.827003C58.7857 1.22565 58.5522 1.75767 58.5271 2.31922C58.5019 2.88077 58.6869 3.43153 59.046 3.864L75.261 20.08L58.888 36.459L58.845 36.5C58.4393 36.924 58.2156 37.4899 58.2218 38.0767C58.228 38.6635 58.4636 39.2245 58.8783 39.6398C59.2929 40.0551 59.8536 40.2916 60.4404 40.2987C61.0271 40.3059 61.5934 40.0831 62.018 39.678L78.444 23.252L94.844 39.652L94.858 39.671C95.0667 39.8797 95.3144 40.0452 95.5871 40.1581C95.8597 40.2711 96.1519 40.3292 96.447 40.3292C96.7421 40.3292 97.0343 40.2711 97.307 40.1581C97.5796 40.0452 97.8273 39.8797 98.036 39.671C98.2447 39.4623 98.4102 39.2146 98.5231 38.942C98.6361 38.6693 98.6942 38.3771 98.6942 38.082C98.6942 37.7869 98.6361 37.4947 98.5231 37.222C98.4102 36.9494 98.2447 36.7017 98.036 36.493L81.612 20.08L97.788 3.901H97.782C98.1779 3.46816 98.3884 2.89748 98.3685 2.31127C98.3486 1.72505 98.0999 1.16995 97.6757 0.764914C97.2514 0.359883 96.6854 0.137155 96.0989 0.144461C95.5124 0.151768 94.952 0.388528 94.538 0.804003Z" fill="white"/>
</g>
</mask>
<g mask="url(#mask3_1_76162)">
<g id="Group 7">
<path id="Rectangle 4" d="M98.9069 -0.682007H57.9619V40.561H98.9069V-0.682007Z" fill="url(#paint1_linear_1_76162)"/>
</g>
</g>
</g>
</g>
<g id="Group 10">
<g id="Clip path group_5">
<mask id="mask4_1_76162" style="mask-type:luminance" maskUnits="userSpaceOnUse" x="0" y="0" width="159" height="79">
<g id="clip-path-5960_3">
<path id="Rectangle 1_3" d="M159 0H0.0126953V78.183H159V0Z" fill="white"/>
</g>
</mask>
<g mask="url(#mask4_1_76162)">
<g id="Group 9">
<path id="Path 11" d="M108.87 40.174H146.964C149.305 40.1737 151.587 39.4374 153.487 38.0691C155.387 36.7008 156.809 34.7699 157.551 32.5493C158.294 30.3288 158.319 27.931 157.625 25.6951C156.93 23.4593 155.549 21.4985 153.679 20.09C155.549 18.681 156.93 16.7198 157.624 14.4836C158.319 12.2474 158.294 9.84928 157.552 7.62835C156.809 5.40742 155.388 3.47599 153.488 2.1071C151.588 0.73821 149.306 0.00110911 146.964 0L106.019 0C105.423 0 104.852 0.236579 104.431 0.657692C104.01 1.0788 103.773 1.64996 103.773 2.2455C103.773 2.84104 104.01 3.4122 104.431 3.83331C104.852 4.25442 105.423 4.491 106.019 4.491H146.963C148.733 4.491 150.431 5.19431 151.683 6.44621C152.935 7.69811 153.638 9.39605 153.638 11.1665C153.638 12.937 152.935 14.6349 151.683 15.8868C150.431 17.1387 148.733 17.842 146.963 17.842H108.87C107.519 17.8436 106.225 18.3808 105.27 19.3358C104.315 20.2907 103.778 21.5855 103.776 22.936V35.08C103.778 36.4305 104.315 37.7253 105.27 38.6802C106.225 39.6352 107.519 40.1724 108.87 40.174ZM108.263 23.608C108.263 23.2697 108.398 22.9455 108.637 22.7063C108.876 22.4671 109.201 22.3325 109.539 22.332H146.965C148.735 22.332 150.433 23.0353 151.685 24.2872C152.937 25.5391 153.64 27.237 153.64 29.0075C153.64 30.778 152.937 32.4759 151.685 33.7278C150.433 34.9797 148.735 35.683 146.965 35.683H109.538C109.2 35.6827 108.877 35.5489 108.638 35.3107C108.399 35.0726 108.264 34.7495 108.262 34.412L108.263 23.608Z" fill="#03597B"/>
</g>
</g>
</g>
</g>
</g>
<defs>
<linearGradient id="paint0_linear_1_76162" x1="-0.0431748" y1="78.187" x2="0.58922" y2="78.187" gradientUnits="userSpaceOnUse">
<stop stop-color="#03597B"/>
<stop offset="1" stop-color="#35BDEF"/>
</linearGradient>
<linearGradient id="paint1_linear_1_76162" x1="0.0247357" y1="78.1746" x2="0.638911" y2="78.1746" gradientUnits="userSpaceOnUse">
<stop stop-color="#03597B"/>
<stop offset="1" stop-color="#35BDEF"/>
</linearGradient>
</defs>
</svg>
